<?xml version="1.0" encoding="utf-8"?>
<!-- Generator: Adobe Adobe Illustrator 24.2.0, SVG Export Plug-In . SVG Version: 6.00 Build 0)  -->
<svg version="1.1" id="Layer_1" xmlns="http://www.w3.org/2000/svg" xmlns:xlink="http://www.w3.org/1999/xlink" x="0px" y="0px"
	 width="1728px" height="648px" viewBox="0 0 1728 648" style="enable-background:new 0 0 1728 648;" xml:space="preserve">
<style type="text/css">
	.st0{fill:#B8BCCF;}
	.st1{fill:#979DC0;}
	.st2{fill:#4E629E;}
	.st3{fill:#27508F;}
	.st4{fill:#18477F;}
</style>
<rect x="-320.84" y="203.78" class="st0" width="2215.84" height="444.22"/>
<path class="st1" d="M-69.54,554.02c0,0,192.1,35.41,389.75-11.26s348.87,48.08,678.1,76.71c96.39,8.38,226.01-30.35,369.81-52.34
	c47.78-7.31,98.99-1.28,192.71,15.82c111.44,20.34,258.17-11.25,313.45-58.35c55.28-47.09-17.55-217.45-17.55-217.45L-69.54,276.38
	V554.02z"/>
<path class="st2" d="M-386.01,388.37c0,0,208.35-125.07,637.74,12.5c312.88,100.24,863.29,148.91,1178.29,60.3
	c294.87-82.95,371.41-19.37,409.63-66.9c36.43-45.31,8.75-123.52,8.75-123.52L-455.46,45.27L-386.01,388.37z"/>
<path class="st3" d="M-6.94,101.36l-20.97,143.32c0,0,258.8-100.72,616.97,51.95c0,0,122.39,53.15,318.58,12.23
	c91.44-19.07,218.1-33.99,371.79,37.19c103.12,47.76,234.53,95.92,449.18-69.91l50.69-85.64L-6.94,101.36z"/>
<path class="st4" d="M1785.54,182.58c0,0-669.18,105.64-1222.98,1.56c0,0-468.02-84.64-598.04-68.74
	c-66.78,8.17-58.12-226.66,237.12-236.32c540.6-17.69,1577.65-1.58,1577.65-1.58L1785.54,182.58z"/>
</svg>
